<svg class="animated" id="freepik_stories-lungs" xmlns="http://www.w3.org/2000/svg" viewBox="0 0 500 500" version="1.1" xmlns:xlink="http://www.w3.org/1999/xlink" xmlns:svgjs="http://svgjs.com/svgjs"><style>svg#freepik_stories-lungs:not(.animated) .animable {opacity: 0;}svg#freepik_stories-lungs.animated #freepik--Diaphragm--inject-122 {animation: 6s Infinite  linear floating;animation-delay: 0s;}svg#freepik_stories-lungs.animated #freepik--Character--inject-122 {animation: 6s Infinite  linear floating;animation-delay: 0s;}svg#freepik_stories-lungs.animated #freepik--Lungs--inject-122 {animation: 6s Infinite  linear floating;animation-delay: 0s;}            @keyframes floating {                0% {                    opacity: 1;                    transform: translateY(0px);                }                50% {                    transform: translateY(-10px);                }                100% {                    opacity: 1;                    transform: translateY(0px);                }            }        .animator-hidden { display: none; }</style><g id="freepik--background-simple--inject-122" class="animable" style="transform-origin: 253.23px 265.158px;"><path d="M465.41,135.51q-2.36-4-4.92-7.79c-22.86-33.87-62.19-57-100.88-67.5a228.9,228.9,0,0,0-52-7.59c-115-3.89-160.78,86.73-198.79,110.12S12.37,226.09,16.27,309.89s64.32,162.73,181.25,167.6,124.73-47.74,190-67.23c43.2-12.9,73.9-56.46,88.93-96.72C497,258.67,496,187.41,465.41,135.51Z" style="fill: rgb(40, 200, 146); transform-origin: 253.23px 265.158px;" id="elx9cbg29w3lc" class="animable"></path><g id="eliy21qmu5iym"><path d="M465.41,135.51q-2.36-4-4.92-7.79c-22.86-33.87-62.19-57-100.88-67.5a228.9,228.9,0,0,0-52-7.59c-115-3.89-160.78,86.73-198.79,110.12S12.37,226.09,16.27,309.89s64.32,162.73,181.25,167.6,124.73-47.74,190-67.23c43.2-12.9,73.9-56.46,88.93-96.72C497,258.67,496,187.41,465.41,135.51Z" style="fill: rgb(255, 255, 255); opacity: 0.7; transform-origin: 253.23px 265.158px;" class="animable"></path></g></g><g id="freepik--Diaphragm--inject-122" class="animable" style="transform-origin: 240.293px 359.61px;"><path d="M158.09,368s.44,3.29,1.76,3.07a231.69,231.69,0,0,1,54.84-11.19c31.14-2.41,64.05-1.31,76.55,1.54s31.15,7,31.15,6.36.22-1.75.22-2.85-7.24-4.17-20.62-6.36-43.87-5.93-59.88-5.93-49.36,2.64-61.86,7S158.09,368,158.09,368Z" style="fill: rgb(194, 194, 194); stroke: rgb(38, 50, 56); stroke-miterlimit: 10; transform-origin: 240.35px 361.86px;" id="el0ngwzqz24hrk" class="animable"></path><path d="M161.6,356.54s-5.92,11.63-3.51,11.41,33.34-11.19,79.63-12.5,76.11,7.89,80.72,9.43,5.27,0,4.17-2.2-4.39-8.11-6.14-9-43.87-3.29-73.27-5.26S162.92,355.45,161.6,356.54Z" style="fill: rgb(255, 255, 255); stroke: rgb(38, 50, 56); stroke-miterlimit: 10; transform-origin: 240.293px 358.046px;" id="elx69irtyr7m" class="animable"></path></g><g id="freepik--Character--inject-122" class="animable" style="transform-origin: 237.84px 248.645px;"><path d="M413.3,390.07l2.7,10.6" style="fill: none; stroke: rgb(38, 50, 56); stroke-miterlimit: 10; transform-origin: 414.65px 395.37px;" id="elwzyhvkhkfv" class="animable"></path><path d="M272.61,171.23c8.84,11.69,23.46,25.62,34.1,29.68,14,5.34,41.43,8.39,54.39,12.71s24.65,20.84,26.69,35.58,5.08,60,5.33,61.25c.19.92,12,47.48,18.59,73.35" style="fill: none; stroke: rgb(38, 50, 56); stroke-miterlimit: 10; transform-origin: 342.16px 277.515px;" id="elwnfxrddidnd" class="animable"></path><path d="M80,340.19l9.19-30.76s4.32-36.59,5.08-54.38,12.45-40.41,24.15-45,43-7.37,51.08-10.42S202,185.41,202,183.12s-1.27-14.23-4.57-18.3-19.83,0-27.2-1.52-8.64-3.05-9.15-9.41.26-26.68,0-28.71-6.86-4.07-8.64-8.39,10.17-15.5,10.93-20.59-2-8.64-3.05-11.94,3.3-9.91,5.08-17.54A40.18,40.18,0,0,1,170.74,54s-.25,1.27-5.59-.5-1.53-9.15,4.57-14.24,22.12-17,37.36-18,47.53,3.56,55.66,6.35,16.52,17.54,17,19.57,3.81-3.3,4.32.26-.25,4.82-.25,4.82a195.34,195.34,0,0,1,2.54,22.88c.76,13.47.25,25.41-1.53,30.75s-6.6,14.49-11.18,22.62-8.13,8.64-8.64,14-4.32,6.86,1.27,18.81c.52,1.1,1.17,2.3,1.93,3.56" style="fill: none; stroke: rgb(38, 50, 56); stroke-miterlimit: 10; transform-origin: 183.346px 180.655px;" id="elz9jyxrunrq" class="animable"></path><line x1="59.68" y1="408.05" x2="78" y2="346.76" style="fill: none; stroke: rgb(38, 50, 56); stroke-miterlimit: 10; transform-origin: 68.84px 377.405px;" id="elpgs8mcx34ml" class="animable"></line><path d="M111.79,407.74,139,345.49s11.44,45.76,12.76,57.2-11,73.48-11,73.48" style="fill: none; stroke: rgb(38, 50, 56); stroke-miterlimit: 10; transform-origin: 131.824px 410.83px;" id="elszgacfp608" class="animable"></path><line x1="105.14" y1="422.93" x2="108.3" y2="415.73" style="fill: none; stroke: rgb(38, 50, 56); stroke-miterlimit: 10; transform-origin: 106.72px 419.33px;" id="els60zkmbidlf" class="animable"></line><path d="M329,451.81c2.41,13.48,4.57,24.36,4.57,24.36" style="fill: none; stroke: rgb(38, 50, 56); stroke-miterlimit: 10; transform-origin: 331.285px 463.99px;" id="elzmru28okrg" class="animable"></path><path d="M365.61,424.69l-30.26-79.2s-11.44,45.76-12.76,57.2c-.63,5.53,1.92,22.89,4.72,39.35" style="fill: none; stroke: rgb(38, 50, 56); stroke-miterlimit: 10; transform-origin: 344.052px 393.765px;" id="elueq02sis6el" class="animable"></path><line x1="133.79" y1="327.75" x2="123.51" y2="292.86" style="fill: none; stroke: rgb(38, 50, 56); stroke-miterlimit: 10; transform-origin: 128.65px 310.305px;" id="el8zjtc0nawf4" class="animable"></line><line x1="139.02" y1="345.49" x2="136.13" y2="335.67" style="fill: none; stroke: rgb(38, 50, 56); stroke-miterlimit: 10; transform-origin: 137.575px 340.58px;" id="el8t6x0o5z4x8" class="animable"></line><line x1="348.59" y1="290.42" x2="350.65" y2="281.86" style="fill: none; stroke: rgb(38, 50, 56); stroke-miterlimit: 10; transform-origin: 349.62px 286.14px;" id="elcdjoqksqqwn" class="animable"></line><line x1="158.46" y1="211.97" x2="194.05" y2="213.91" style="fill: none; stroke: rgb(38, 50, 56); stroke-miterlimit: 10; transform-origin: 176.255px 212.94px;" id="elposlk6rw1dd" class="animable"></line><line x1="316.35" y1="213.26" x2="288.53" y2="215.85" style="fill: none; stroke: rgb(38, 50, 56); stroke-miterlimit: 10; transform-origin: 302.44px 214.555px;" id="ells4q2srg6lh" class="animable"></line><line x1="335.35" y1="345.49" x2="346.98" y2="297.13" style="fill: none; stroke: rgb(38, 50, 56); stroke-miterlimit: 10; transform-origin: 341.165px 321.31px;" id="elvj5s20qihvs" class="animable"></line><path d="M234.25,103.1S237,96.88,242,93.9s11.44-.25,12.19,10.94-4,16.66-7,19.15S237,129.21,237,129.21" style="fill: none; stroke: rgb(38, 50, 56); stroke-miterlimit: 10; transform-origin: 244.26px 110.994px;" id="el4vxjmsu0vkb" class="animable"></path><path d="M231.27,100.11s-6.47,3.49-8.46,3.24,2-4.48,2-4.48-3.73,1-5.22-.5,2.73-5.22,2-6.21-19.9-8.46-20.89-11,2.23-21.39,2.23-21.39-9.45,5-17.9,5-1-8.71-3.48-10.7-6.47,0-6.47,0" style="fill: none; stroke: rgb(38, 50, 56); stroke-miterlimit: 10; transform-origin: 203.175px 78.2742px;" id="elf99mez2ezye" class="animable"></path><path d="M198.69,161s11.06-2.53,16.6-4.74" style="fill: none; stroke: rgb(38, 50, 56); stroke-miterlimit: 10; transform-origin: 206.99px 158.63px;" id="eldh3cvz5hmyb" class="animable"></path></g><g id="freepik--Lungs--inject-122" class="animable" style="transform-origin: 240.362px 229.183px;"><path d="M261.87,220.76s2-4.39,9.65-5.92,21.94,10.31,30.71,21.28,14.26,32.68,14.92,33.56,4.38,4.17,7.24,17.33,2.19,35.53,2.85,37.51,3.29,14.26,2.41,20.18-3.07,12.5-9.87,14.69-13.84,5.09-18.87,2.64c-18-8.78-27.66-3.73-35.55-7.24s-11.61-9.21-15.56-21.72-2.85-29.61-.43-37.95,2.41-21.49,5.26-39,2.12-20.38,2.19-24.13C257,221.42,261.87,220.76,261.87,220.76Z" style="fill: rgb(40, 200, 146); stroke: rgb(38, 50, 56); stroke-miterlimit: 10; transform-origin: 288.509px 288.835px;" id="el3g2266j45ij" class="animable"></path><path d="M261.41,234.8c.66,6.14,9.21,34.88,3.95,46.28-4.8,10.41-13.6,19.37-18.11,35.33a63.84,63.84,0,0,0,2.55,16.66,39.22,39.22,0,0,0,1.59,4.13c5,2.24,12.52,2,20.33,2.23,15.35.44,25.66,17.33,34.44,20.4,1.38.49,2.66.91,3.86,1.28a42,42,0,0,0,9.76-1.72c6.8-2.19,9-8.77,9.87-14.69s-1.76-18.21-2.41-20.18,0-24.35-2.85-37.51-6.59-16.45-7.24-17.33-6.15-22.6-14.92-33.56-23-22.82-30.71-21.28-9.65,5.92-9.65,5.92A68.48,68.48,0,0,0,261.41,234.8Z" style="fill: rgb(194, 194, 194); stroke: rgb(38, 50, 56); stroke-miterlimit: 10; transform-origin: 288.537px 287.907px;" id="elzxbn8c2r3im" class="animable"></path><path d="M316,318.32a.53.53,0,0,0-.66-.35l-2,.59,1.78-3a.52.52,0,0,0-.18-.72.53.53,0,0,0-.73.18l-2.1,3.57a.47.47,0,0,0-.06.38l-6.5,2a.55.55,0,0,0-.3.24c-.93-.41-1.85-.84-2.76-1.28a78.2,78.2,0,0,1-10.6-6.28,27.23,27.23,0,0,1-4.57-3.93,13.07,13.07,0,0,1-.9-1.15l-.91-1.26-1.83-2.53-7-9.71c0-.15,0-.3,0-.45a24.13,24.13,0,0,0-.45-5.5,25.53,25.53,0,0,1,5.66,1.28,6,6,0,0,1,.67.33,1.52,1.52,0,0,1,.25.17,1.18,1.18,0,0,1,.25.23,9.73,9.73,0,0,1,1,1.26,5.63,5.63,0,0,1,.7,3,31.26,31.26,0,0,0,.08,3.59,22.35,22.35,0,0,0,.72,3.57,19.85,19.85,0,0,0,1.31,3.38c.6,1.11,1.24,2,1.86,3.05a.37.37,0,0,0,.65-.37c-.56-1-1.22-2.09-1.69-3.08a19.46,19.46,0,0,1-1.08-3.26,21.88,21.88,0,0,1-.52-3.39,31.87,31.87,0,0,1,.1-3.48,14.35,14.35,0,0,0,0-1.45,15.06,15.06,0,0,1,2.68,2.2c1.69,1.76,8.09,7.77,8.37,8a.51.51,0,0,0,.34.14.5.5,0,0,0,.4-.16.53.53,0,0,0,0-.75c-.05-.05-4.12-3.86-6.67-6.34a22.33,22.33,0,0,1,2.44,1,31,31,0,0,0,5.6,1.62h.1a.53.53,0,0,0,.53-.42.53.53,0,0,0-.42-.63,30.41,30.41,0,0,1-5.31-1.52,41.89,41.89,0,0,0-4.69-1.84,16.76,16.76,0,0,0-3.63-2.78,5.53,5.53,0,0,0-.43-1,11.37,11.37,0,0,0-1.13-1.54,3.57,3.57,0,0,0-.83-.75,6.65,6.65,0,0,0-.89-.5,29.74,29.74,0,0,0-6.8-1.84,95.66,95.66,0,0,0-4.8-15.88,49.78,49.78,0,0,0-3.34-6.07,37.38,37.38,0,0,1,4.39-.69,12,12,0,0,1,2.88,0c.1,0,.33.09.63.15,2.45,2.7,5,5.27,7.65,7.75.75.7,1.51,1.38,2.27,2.05a.53.53,0,0,0,.05.5,43.68,43.68,0,0,0,7.44,8.1,48.57,48.57,0,0,1,5.58,5.58l-.11,5a.53.53,0,1,0,1.05,0l.09-3.82c2.35,2.69,4.26,5.08,4.3,5.13a.52.52,0,0,0,.74.08.53.53,0,0,0,.09-.74c-.17-.21-2.5-3.13-5.19-6.15a.58.58,0,0,0-.1-.12,53.23,53.23,0,0,0-5.8-5.79,35.5,35.5,0,0,1-5.32-5.4c1.27,1,2.58,2,3.94,3a84.44,84.44,0,0,0,10.12,5.76l5.19,2.54a18.2,18.2,0,0,1,2.41,1.43l2.36,1.68a.54.54,0,0,0,.73-.12.53.53,0,0,0-.12-.74l-2.33-1.71a18.78,18.78,0,0,0-2.53-1.54L303,284.2l-1.91-1,5.89,0a.53.53,0,0,0,.53-.53.52.52,0,0,0-.53-.53l-7.52,0a.54.54,0,0,0-.22.05,67.29,67.29,0,0,1-6.13-3.79,76.46,76.46,0,0,1-8.77-7.34c-2.28-2.18-4.48-4.45-6.59-6.78a5.91,5.91,0,0,0,1.07-.52l.27-.18a1.11,1.11,0,0,0,.56-.37s0,0,.05,0c.62-.46,1.17-.91,1.75-1.29a8,8,0,0,1,2.56-1.19,22.3,22.3,0,0,1,3-.31c.52,0,1-.05,1.55-.05h.95a18.86,18.86,0,0,1,3.61,1.93,48.54,48.54,0,0,0,5.68,3.11.56.56,0,0,0,0,.44l2.89,6.43a.53.53,0,0,0,.47.31.68.68,0,0,0,.23-.05.53.53,0,0,0,.26-.7L300,266l.54.26,5.83,4a.52.52,0,0,0,.29.09.56.56,0,0,0,.45-.23.54.54,0,0,0-.13-.73l-5.92-4.09a69.53,69.53,0,0,1-7.34-3.88c-.13-.1-.28-.19-.42-.29.25.05.49.11.74.15a15.18,15.18,0,0,0,4.35.31l1.28-.1,7.14,2.33.15,0a.52.52,0,0,0,.51-.36.53.53,0,0,0-.33-.67l-4.72-1.55,4.21-.32h0a.52.52,0,0,0,.48-.55.53.53,0,0,0-.55-.51l-4.94.21,3.5-2.78a.52.52,0,0,0,.08-.74.52.52,0,0,0-.74-.08L300.06,260a.39.39,0,0,0-.14.17l-1.69.07a14,14,0,0,1-3.9-.43c-1.33-.29-2.67-.63-4-1l.06,0a3.09,3.09,0,0,0-.58-.12l-.44,0c-.28,0-.56,0-.84,0-.55,0-1.09,0-1.63,0a23.43,23.43,0,0,0-3.34.24,8.38,8.38,0,0,0-1.61.5s0,0,0-.05a16,16,0,0,0,1.4-4.38,16.64,16.64,0,0,0,.16-2.7,59.8,59.8,0,0,0,4.68-4.39h0a44.1,44.1,0,0,1,5.92-3.7,8.76,8.76,0,0,1,3.26-.89.52.52,0,0,0,.54-.52.53.53,0,0,0-.51-.54,9.71,9.71,0,0,0-3.72,1,26.86,26.86,0,0,0-3.13,1.77,1.7,1.7,0,0,0,.15-.22,22.76,22.76,0,0,0,3-6,.53.53,0,1,0-1-.27,21.37,21.37,0,0,1-2.81,5.7,40.21,40.21,0,0,1-6.38,6.74c0-.15,0-.29,0-.44,0-.62-.07-1.23-.12-1.85.78-2.21,2.66-7.94,2.75-11.48a42.07,42.07,0,0,1,1-8.11.53.53,0,0,0-.39-.64.55.55,0,0,0-.64.39,43,43,0,0,0-1.07,8.33,38.26,38.26,0,0,1-1.94,8.92c-.17-1.43-.38-2.85-.65-4.26a25.47,25.47,0,0,0-1.15-4.31c-1.14-2.71-2.44-5.28-3.77-7.86a.53.53,0,0,0-.94.47h0c1.23,2.6,2.45,5.23,3.47,7.87A25,25,0,0,1,281,242c.22,1.4.38,2.82.5,4.24s.2,2.85.22,4.26a21.32,21.32,0,0,1-.23,4.13,16.94,16.94,0,0,1-3.56,7.2l-.24.16a2.81,2.81,0,0,1-1.07.39,3.87,3.87,0,0,1-1.23-.26,14.3,14.3,0,0,0-3.48-.16,43.39,43.39,0,0,0-5.7.77,62.74,62.74,0,0,0-6.64-8.31l-13.14-13.32-4.19,12.19s1.87.63,3.88,1.25,10.57,5.46,14.54,8.87,6.43,9.26,8.77,14.53,3.67,16.13,2.93,22.91a24,24,0,0,0-.2,5.13,50.36,50.36,0,0,0-6.67,3.1,78.85,78.85,0,0,1-7,4.28l-1.9,1a.53.53,0,0,0-.23.71.52.52,0,0,0,.46.29.57.57,0,0,0,.25-.06l1.9-1c1.28-.66,3.29-1.87,5-3a12.74,12.74,0,0,0-1.8,6.51.53.53,0,0,0,.51.5h0a.53.53,0,0,0,.51-.55c-.17-3.68,2.52-7.38,2.92-7.9a50,50,0,0,1,6.24-2.89,1.17,1.17,0,0,0,.05.11,25.88,25.88,0,0,0-4.42,8.52c-.18.64-.34,1.25-.47,1.86a10.05,10.05,0,0,0-3.39,3.62c-.2.43-.4.81-.58,1.17a11,11,0,0,0-1,2.41c-1,.42-3.82,1.74-4.53,3.84a.52.52,0,0,0,.33.67.41.41,0,0,0,.16,0,.52.52,0,0,0,.51-.36c.46-1.35,2.19-2.38,3.3-2.91-.05.42-.09.86-.11,1.38a15.89,15.89,0,0,0,1.36,6.35.55.55,0,0,0,.46.3.52.52,0,0,0,.49-.75,15,15,0,0,1-1.25-5.87,10.24,10.24,0,0,1,.21-2,.53.53,0,0,0,.11-.49,10.49,10.49,0,0,1,.9-2.14c.2-.38.4-.77.61-1.22a7.71,7.71,0,0,1,2.14-2.52,30.07,30.07,0,0,0-.11,8.65c.36,3,.87,6.09.87,6.12a.53.53,0,0,0,.51.44h.1a.52.52,0,0,0,.43-.61s-.51-3.07-.86-6.07a28.25,28.25,0,0,1,.33-9.56.71.71,0,0,0,0-.21c.13-.6.28-1.22.47-1.85a25.1,25.1,0,0,1,4-7.85l.09.12c.14,1.08.28,2.16.4,3.24.3,2.71.52,5.46.75,8.2s.41,5.47.46,8.2A28.64,28.64,0,0,1,274,336h0a.14.14,0,0,0,.09.17.13.13,0,0,0,.18-.08,29.36,29.36,0,0,0,1.22-8.21c.06-1.88.06-3.76,0-5.65,1.47,3.59,4.39,10.3,6.79,12.92a16.53,16.53,0,0,0,6.34,4.63l.15,0a.5.5,0,0,0,.51-.36.53.53,0,0,0-.33-.67,15.86,15.86,0,0,1-5.89-4.33c-3.14-3.43-7.45-14.79-7.5-14.9a.41.41,0,0,0-.12-.19c-.13-5.05-.34-10.12-.86-15.2.47-1.62,1.15-3.75,1.62-6.18l6,7.86,1.88,2.47.94,1.24.11.13c-.39,1.31-.36,4.47,4.27,11,3.19,4.5,6.45,8.58,8.91,11.46l.36,8a.54.54,0,0,0,.52.51h0a.53.53,0,0,0,.5-.56l-.3-6.66a19.11,19.11,0,0,0,2.87,2.92.41.41,0,0,0,.19,0,.56.56,0,0,0,.53-.34.48.48,0,0,0-.28-.65,41.85,41.85,0,0,1-3.39-3.68v0a.52.52,0,0,0-.44-.49c-2.3-2.71-5.4-6.57-8.65-11.14-3.59-5.06-4.24-7.87-4.22-9.26l0,0a29.12,29.12,0,0,0,4.94,4.07A79.62,79.62,0,0,0,302,321a70.08,70.08,0,0,0,11.8,4.26.49.49,0,0,0,.59-.34.49.49,0,0,0-.34-.6h0a63.74,63.74,0,0,1-7.4-2.61l9-2.73A.54.54,0,0,0,316,318.32Z" style="fill: rgb(255, 255, 255); stroke: rgb(38, 50, 56); stroke-miterlimit: 10; transform-origin: 279.13px 284.534px;" id="eldr03gpsc0cw" class="animable"></path><path d="M243.25,253.59l5.29-10.41-2.07-2.1-4.19,12.19Z" style="fill: rgb(38, 50, 56); stroke: rgb(38, 50, 56); stroke-miterlimit: 10; transform-origin: 245.41px 247.335px;" id="el55f8l0qb1k3" class="animable"></path><path d="M257.05,251.82l-1.65-1.68a17.89,17.89,0,0,1-3.94,7.06c.61.34,1.23.71,1.85,1.08A19.79,19.79,0,0,0,257.05,251.82Z" style="fill: rgb(38, 50, 56); stroke: rgb(38, 50, 56); stroke-miterlimit: 10; transform-origin: 254.255px 254.21px;" id="eluwuttfqu5e" class="animable"></path><path d="M248.54,255.6a23.86,23.86,0,0,0,4.79-7.56l-1.67-1.69a21.67,21.67,0,0,1-5.16,8.3C247,254.84,247.69,255.17,248.54,255.6Z" style="fill: rgb(38, 50, 56); stroke: rgb(38, 50, 56); stroke-miterlimit: 10; transform-origin: 249.915px 250.975px;" id="elxphh76a8p69" class="animable"></path><path d="M264.21,259.85c-.46-.61-.92-1.21-1.39-1.79a23.91,23.91,0,0,1-3.27,4.4c.41.32.8.63,1.15.93.16.14.3.3.45.45A24.91,24.91,0,0,0,264.21,259.85Z" style="fill: rgb(38, 50, 56); stroke: rgb(38, 50, 56); stroke-miterlimit: 10; transform-origin: 261.88px 260.95px;" id="elwz9zg8plk7c" class="animable"></path><path d="M260.83,255.72c-.41-.47-.82-.91-1.22-1.32l-.31-.31a28,28,0,0,1-3.8,5.55c.6.39,1.2.79,1.78,1.19A30.16,30.16,0,0,0,260.83,255.72Z" style="fill: rgb(38, 50, 56); stroke: rgb(38, 50, 56); stroke-miterlimit: 10; transform-origin: 258.165px 257.46px;" id="elas3acapvh7q" class="animable"></path><path d="M172.93,328.44a.53.53,0,0,1,.6-.45l2,.29-2.22-2.72a.53.53,0,0,1,.07-.74.55.55,0,0,1,.75.07l2.62,3.21a.52.52,0,0,1,.12.37l6.72.95a.52.52,0,0,1,.33.2c.86-.55,1.7-1.11,2.54-1.69a78.7,78.7,0,0,0,9.52-7.82,27.65,27.65,0,0,0,3.92-4.58c.28-.41.45-.8.71-1.26l.71-1.39,1.42-2.78,5.48-10.66c0-.15-.08-.3-.11-.45a24.6,24.6,0,0,1-.4-5.5,26,26,0,0,0-5.4,2.13,5,5,0,0,0-.61.42,1.52,1.52,0,0,0-.22.21,1.19,1.19,0,0,0-.21.27,9.54,9.54,0,0,0-.82,1.4,5.66,5.66,0,0,0-.23,3.07,31.67,31.67,0,0,1,.46,3.56,22,22,0,0,1-.17,3.63,20.83,20.83,0,0,1-.77,3.55c-.43,1.19-.92,2.18-1.38,3.29a.37.37,0,0,1-.47.21.39.39,0,0,1-.23-.48c.4-1.09.88-2.24,1.2-3.29a19.36,19.36,0,0,0,.57-3.39,20.68,20.68,0,0,0,0-3.43,30.89,30.89,0,0,0-.63-3.43c-.07-.45-.14-.94-.17-1.44a15.49,15.49,0,0,0-2.32,2.58c-1.4,2-6.82,8.91-7.05,9.21a.53.53,0,0,1-.32.19.52.52,0,0,1-.51-.84c0-.06,3.48-4.44,5.63-7.29a23,23,0,0,0-2.26,1.4,31.27,31.27,0,0,1-5.29,2.46l-.09,0a.53.53,0,0,1-.28-1,31.39,31.39,0,0,0,5-2.32,39.46,39.46,0,0,1,4.36-2.53,17.12,17.12,0,0,1,3.16-3.31,4.58,4.58,0,0,1,.27-1,12.23,12.23,0,0,1,.88-1.7,4,4,0,0,1,.71-.87,7.41,7.41,0,0,1,.81-.63,30,30,0,0,1,6.43-2.85,97.1,97.1,0,0,1,2.33-16.42,49,49,0,0,1,2.39-6.51,38.9,38.9,0,0,0-4.45,0,11.81,11.81,0,0,0-2.85.45l-.59.24q-3,4.55-6.38,8.82c-.64.8-1.29,1.59-1.94,2.38a.5.5,0,0,1,0,.49,44,44,0,0,1-6.13,9.14,51.76,51.76,0,0,0-4.67,6.36l.87,4.89a.53.53,0,0,1-.42.62.53.53,0,0,1-.62-.43l-.67-3.77c-1.91,3-3.43,5.68-3.46,5.73a.55.55,0,0,1-.37.26.54.54,0,0,1-.35-.06.53.53,0,0,1-.2-.72c.13-.24,2-3.48,4.19-6.88a.34.34,0,0,1,.09-.12,51.59,51.59,0,0,1,4.84-6.61,36.37,36.37,0,0,0,4.45-6.15c-1.11,1.22-2.25,2.4-3.46,3.52a83.25,83.25,0,0,1-9.12,7.24l-4.74,3.3a18.68,18.68,0,0,0-2.17,1.78l-2.07,2a.53.53,0,0,1-.74,0,.53.53,0,0,1,0-.75l2-2a18.57,18.57,0,0,1,2.26-1.91l4.71-3.37,1.74-1.28-5.82.92a.53.53,0,0,1-.16-1.05l7.42-1.17a.44.44,0,0,1,.23,0,66.56,66.56,0,0,0,5.48-4.68,78.33,78.33,0,0,0,7.56-8.59c1.92-2.5,3.75-5.08,5.48-7.7a7.25,7.25,0,0,1-1.14-.36l-.29-.14a1,1,0,0,1-.61-.27s0,0-.05-.05c-.69-.36-1.3-.71-1.93-1a8,8,0,0,0-2.72-.79,23,23,0,0,0-3,.15c-.52.05-1,.11-1.54.19-.25,0-.5.07-.74.12l-.19,0a18.68,18.68,0,0,0-3.28,2.46,49.56,49.56,0,0,1-5.14,3.94.53.53,0,0,1,.08.43l-1.88,6.79a.53.53,0,0,1-.41.38.65.65,0,0,1-.24,0,.54.54,0,0,1-.37-.65l1.71-6.18-.5.33-5.15,4.88a.59.59,0,0,1-.27.14.55.55,0,0,1-.48-.16.53.53,0,0,1,0-.75l5.22-4.93a69.69,69.69,0,0,0,6.67-5l.37-.34-.71.26a15.17,15.17,0,0,1-4.25,1l-1.28.09-6.7,3.4-.14.05A.54.54,0,0,1,173,273a.53.53,0,0,1,.23-.71l4.43-2.25-4.21.32h0a.53.53,0,0,1-.1-1.05l4.93-.54-3.89-2.22a.53.53,0,0,1,.53-.92l4.9,2.8a.46.46,0,0,1,.16.15l1.68-.19a13.69,13.69,0,0,0,3.8-1c1.27-.48,2.53-1,3.77-1.6l-.06,0a2.37,2.37,0,0,1,.55-.2l.43-.11c.28-.07.55-.12.82-.17.54-.1,1.08-.18,1.62-.26a21.67,21.67,0,0,1,3.34-.26,7.56,7.56,0,0,1,1.66.24l0-.05a15.78,15.78,0,0,1-2-4.11,15.44,15.44,0,0,1-.57-2.64,59.64,59.64,0,0,1-5.29-3.63h0a44.73,44.73,0,0,0-6.41-2.76,9.08,9.08,0,0,0-3.37-.38.53.53,0,0,1-.18-1,9.66,9.66,0,0,1,3.82.4,23.83,23.83,0,0,1,3.37,1.28c-.06-.07-.13-.13-.19-.19a22.42,22.42,0,0,1-3.83-5.5.53.53,0,1,1,1-.42,22.13,22.13,0,0,0,3.65,5.21,40,40,0,0,0,7.33,5.68c0-.14,0-.29-.05-.43-.07-.62-.12-1.23-.16-1.84-1.11-2.07-3.84-7.45-4.46-10.94a41.82,41.82,0,0,0-2.27-7.85.53.53,0,0,1,1-.41,43,43,0,0,1,2.33,8.07,38.5,38.5,0,0,0,3.27,8.52c0-1.44,0-2.87,0-4.31a25,25,0,0,1,.47-4.43c.72-2.86,1.62-5.59,2.53-8.34a.53.53,0,0,1,1,.32h0c-.82,2.75-1.63,5.54-2.23,8.3a23.85,23.85,0,0,0-.31,4.18c0,1.42.05,2.85.14,4.27s.24,2.84.43,4.24a22.66,22.66,0,0,0,.86,4.05,17.07,17.07,0,0,0,4.61,6.57l.27.12a2.85,2.85,0,0,0,1.11.23,4.09,4.09,0,0,0,1.18-.44,13.59,13.59,0,0,1,3.41-.69,42.58,42.58,0,0,1,5.75-.11,62,62,0,0,1,5.31-9.22l11-15.17,6,11.42s-1.75.9-3.64,1.82-9.62,7-13,11-4.95,10.13-6.46,15.69-1.17,16.5.59,23.09a24,24,0,0,1,1,5,49.06,49.06,0,0,1,7,2.05,79.15,79.15,0,0,0,7.56,3.17l2,.67a.53.53,0,0,1,.34.67.51.51,0,0,1-.41.35.47.47,0,0,1-.26,0l-2-.66c-1.37-.45-3.54-1.35-5.38-2.17a12.9,12.9,0,0,1,2.77,6.16.55.55,0,0,1-.44.58h0a.54.54,0,0,1-.59-.47c-.39-3.66-3.61-6.9-4.08-7.36a49.47,49.47,0,0,0-6.62-1.9s0,.07,0,.11a26.16,26.16,0,0,1,5.66,7.75c.27.6.52,1.19.75,1.76a10.18,10.18,0,0,1,3.9,3.07c.26.4.51.74.75,1.07a10.77,10.77,0,0,1,1.36,2.23c1.05.25,4,1.14,5.07,3.11a.53.53,0,0,1-.23.71l-.15.05a.53.53,0,0,1-.56-.28c-.66-1.27-2.53-2-3.7-2.38.11.41.22.85.31,1.36a15.73,15.73,0,0,1-.38,6.47.5.5,0,0,1-.41.37.49.49,0,0,1-.24,0,.54.54,0,0,1-.36-.66,14.81,14.81,0,0,0,.35-6,11.71,11.71,0,0,0-.5-1.92.49.49,0,0,1-.19-.45,10.38,10.38,0,0,0-1.22-2c-.25-.34-.51-.7-.79-1.11a7.58,7.58,0,0,0-2.49-2.17,30.14,30.14,0,0,1,1.42,8.54c.11,3,.07,6.14.07,6.18a.52.52,0,0,1-.44.51h-.1a.54.54,0,0,1-.52-.54s0-3.11-.06-6.13a28.34,28.34,0,0,0-1.78-9.4.5.5,0,0,1-.08-.2c-.22-.58-.46-1.16-.74-1.76a25.5,25.5,0,0,0-5.14-7.16l-.07.14c0,1.09,0,2.18.1,3.26.11,2.73.31,5.48.5,8.22s.42,5.47.79,8.18a28.34,28.34,0,0,0,2,7.91h0a.16.16,0,0,1-.06.19.14.14,0,0,1-.19-.06,29.18,29.18,0,0,1-2.45-7.93c-.36-1.85-.64-3.71-.9-5.57-.9,3.76-2.77,10.84-4.74,13.8a16.53,16.53,0,0,1-5.56,5.53.44.44,0,0,1-.15.05.53.53,0,0,1-.33-1,15.71,15.71,0,0,0,5.16-5.18c2.58-3.87,5.12-15.75,5.14-15.87a.72.72,0,0,1,.09-.2c-.64-5-1.2-10-1.46-15.15-.7-1.53-1.7-3.53-2.54-5.87l-4.71,8.68-1.48,2.73-.74,1.36a1.09,1.09,0,0,1-.08.15c.58,1.23,1,4.36-2.56,11.52-2.46,4.92-5.07,9.45-7.06,12.67l.86,8a.53.53,0,0,1-.43.58h0a.53.53,0,0,1-.58-.47l-.72-6.63a20.15,20.15,0,0,1-2.39,3.33.64.64,0,0,1-.18.06.54.54,0,0,1-.57-.25.5.5,0,0,1,.17-.7,41.79,41.79,0,0,0,2.79-4.14v0a.51.51,0,0,1,.36-.55c1.86-3,4.34-7.32,6.85-12.33,2.78-5.55,3-8.42,2.76-9.8l0,0a29.2,29.2,0,0,1-4.26,4.78,80.05,80.05,0,0,1-9.89,7.74,69.87,69.87,0,0,1-11,6,.49.49,0,0,1-.39-.89h0a62.23,62.23,0,0,0,6.92-3.71L173.38,329A.53.53,0,0,1,172.93,328.44Z" style="fill: rgb(255, 255, 255); stroke: rgb(38, 50, 56); stroke-miterlimit: 10; transform-origin: 203.737px 291.326px;" id="el17almd1ss49" class="animable"></path><path d="M235,253.4l-6.81-9.49,1.73-2.39,6,11.42Z" style="fill: rgb(38, 50, 56); stroke: rgb(38, 50, 56); stroke-miterlimit: 10; transform-origin: 232.055px 247.46px;" id="elvlao5ahjkj" class="animable"></path><path d="M221.09,253.74l1.37-1.9a18.13,18.13,0,0,0,5,6.37c-.54.43-1.1.89-1.66,1.36A19.83,19.83,0,0,1,221.09,253.74Z" style="fill: rgb(38, 50, 56); stroke: rgb(38, 50, 56); stroke-miterlimit: 10; transform-origin: 224.275px 255.705px;" id="el5bu4z34c7k5" class="animable"></path><path d="M230.08,256.19a24,24,0,0,1-5.89-6.74c.48-.66.94-1.31,1.4-1.93a21.71,21.71,0,0,0,6.36,7.42A21.44,21.44,0,0,0,230.08,256.19Z" style="fill: rgb(38, 50, 56); stroke: rgb(38, 50, 56); stroke-miterlimit: 10; transform-origin: 228.07px 251.855px;" id="elwf0v3loross" class="animable"></path><path d="M215.24,262.77c.36-.67.73-1.34,1.1-2a23.86,23.86,0,0,0,3.91,3.86c-.36.37-.7.74-1,1.09-.14.16-.25.34-.38.51A25.37,25.37,0,0,1,215.24,262.77Z" style="fill: rgb(38, 50, 56); stroke: rgb(38, 50, 56); stroke-miterlimit: 10; transform-origin: 217.745px 263.5px;" id="elr8uhj7zzkck" class="animable"></path><path d="M218,258.17c.34-.52.67-1,1-1.48l.26-.36a28.15,28.15,0,0,0,4.6,4.91l-1.59,1.44A29.56,29.56,0,0,1,218,258.17Z" style="fill: rgb(38, 50, 56); stroke: rgb(38, 50, 56); stroke-miterlimit: 10; transform-origin: 220.93px 259.505px;" id="elwcz88e620xb" class="animable"></path><path d="M233.46,250.2c0-.21-.18-5.23.07-9.19.19-3.09-1.09-13.59-2.85-28.11l-.29-2.38c-2-16.76-4.71-38.05-4.74-38.26l10.49-1.32c0,.21,2.7,21.52,4.74,38.31l.29,2.38c2,16.75,3.16,26,2.9,30-.21,3.46,0,8.12,0,8.16Z" style="fill: rgb(38, 50, 56); stroke: rgb(38, 50, 56); stroke-miterlimit: 10; transform-origin: 234.878px 210.57px;" id="elio6h2lc1nfm" class="animable"></path><path d="M220.82,154.08s-2,9.45-.75,11.69a3,3,0,0,0,3.49,1.49s-2.49,3.73-1.25,5,6.47,3,7.22,2.24l.74-.75s2.49,1,3.73.75,4-1.5,4.48-3.49a14.8,14.8,0,0,0,.5-4c0-.75,2.73-1.75,2.48-4.73a39.2,39.2,0,0,0-2.24-8.7c-.49-1.25-.74-4-7.21-3.24S222.06,152.09,220.82,154.08Z" style="fill: rgb(255, 255, 255); stroke: rgb(38, 50, 56); stroke-miterlimit: 10; transform-origin: 230.568px 162.448px;" id="elngpdokf0smc" class="animable"></path><path d="M223.56,167.26a11.16,11.16,0,0,1,4.1-1.46" style="fill: none; stroke: rgb(38, 50, 56); stroke-miterlimit: 10; transform-origin: 225.61px 166.53px;" id="el6ubwvt1rb2s" class="animable"></path><path d="M239,167a6,6,0,0,0-4.52-1.65" style="fill: none; stroke: rgb(38, 50, 56); stroke-miterlimit: 10; transform-origin: 236.74px 166.169px;" id="el8ab6s8c4pv4" class="animable"></path><path d="M226.25,178.43s-1.32,1-.92,2.15.22,2.89.78,3.77,3.31,1,5.34.71a22.63,22.63,0,0,0,3.33-.36c.87-.27,3.37-1.94,3.39-2.95s.11-4.34-.62-4.36-3.64,1.22-5.81,1.31A44.58,44.58,0,0,1,226.25,178.43Z" style="fill: rgb(255, 255, 255); stroke: rgb(38, 50, 56); stroke-miterlimit: 10; transform-origin: 231.719px 181.295px;" id="el0n6fw55x40sp" class="animable"></path><path d="M227.5,186.85s-1.33,1-.92,2.14.22,2.9.78,3.78,3.3.95,5.33.7a23.52,23.52,0,0,0,3.34-.35c.87-.27,3.37-2,3.39-3s.1-4.33-.62-4.35-3.64,1.22-5.81,1.31A46.84,46.84,0,0,1,227.5,186.85Z" style="fill: rgb(255, 255, 255); stroke: rgb(38, 50, 56); stroke-miterlimit: 10; transform-origin: 232.967px 189.683px;" id="el8m61l0iwflf" class="animable"></path><path d="M228.75,195.26s-1.33,1-.92,2.15.22,2.9.78,3.78,3.3.94,5.33.7a23,23,0,0,0,3.34-.36c.87-.26,3.37-1.94,3.39-2.95s.1-4.34-.62-4.35-3.64,1.21-5.81,1.3A44.58,44.58,0,0,1,228.75,195.26Z" style="fill: rgb(255, 255, 255); stroke: rgb(38, 50, 56); stroke-miterlimit: 10; transform-origin: 234.217px 198.121px;" id="eleijzia7uehh" class="animable"></path><path d="M230,203.68s-1.33,1-.92,2.15.22,2.89.78,3.77,3.3,1,5.33.71a24.61,24.61,0,0,0,3.34-.36c.87-.27,3.37-1.94,3.39-3s.1-4.33-.62-4.35-3.64,1.22-5.82,1.31A46.6,46.6,0,0,1,230,203.68Z" style="fill: rgb(255, 255, 255); stroke: rgb(38, 50, 56); stroke-miterlimit: 10; transform-origin: 235.467px 206.525px;" id="elazolliadhdq" class="animable"></path><path d="M230.66,212.51s-1.33,1-.92,2.15.22,2.9.78,3.78,3.3.94,5.33.7a23.52,23.52,0,0,0,3.34-.35c.87-.27,3.37-1.95,3.39-3s.1-4.34-.62-4.35-3.64,1.21-5.81,1.31A45.77,45.77,0,0,1,230.66,212.51Z" style="fill: rgb(255, 255, 255); stroke: rgb(38, 50, 56); stroke-miterlimit: 10; transform-origin: 236.127px 215.351px;" id="el261b3j048ig" class="animable"></path><path d="M231.89,221.65s-1.33,1-.92,2.15.22,2.9.78,3.78,3.3.94,5.33.7a25.18,25.18,0,0,0,3.34-.35c.87-.27,3.37-2,3.39-3s.1-4.34-.62-4.35-3.64,1.21-5.81,1.31A45.93,45.93,0,0,1,231.89,221.65Z" style="fill: rgb(255, 255, 255); stroke: rgb(38, 50, 56); stroke-miterlimit: 10; transform-origin: 237.357px 224.491px;" id="el4z2ef8vcpo2" class="animable"></path><path d="M232.64,232.66s-1.15,0,1.57.9a14.54,14.54,0,0,1,4.43,2.42s1.47-1,2.64-1.82,1.93-2.12,2.79-1.67,2.17,6.27,2.4,8.59-4.19,12.19-4.19,12.19a12.9,12.9,0,0,0-3.59-1c-1.45,0-1.9.68-2.62.66s-1.85-1-3.64-5a38.93,38.93,0,0,1-2.44-6.85S231.75,233.65,232.64,232.66Z" style="fill: rgb(255, 255, 255); stroke: rgb(38, 50, 56); stroke-miterlimit: 10; transform-origin: 238.234px 242.834px;" id="elhn3azttvfkk" class="animable"></path><path d="M223.56,155.33a17.22,17.22,0,0,0-.75-4.48,26.1,26.1,0,0,0-3-7.21c-2-3.48-4.48-8-1.25-8s8.46,7.46,9.95,4.23-1-8.46-5.47-11.94-8.21-7.21-16.91-7.21-19.65-.25-24.62-.25-12.19-1.25-15.42-.75-7.71,1.49-9.21-1.24,1.5-7.46,3-9,8-8.45,9.45-11.68,12.93-6,23.87-4.23,13.68,3.48,15.42,7,4.48,8.71,9.21,10.45,6.71,2,7.71,4l1,2s2.49-1.5,3,.24L230,119s2.49.74,2.24,1.74l-.25,1s2.74,1.74,1.74,3-1.24,1.74-.74,2.48,1.74-.25,2.24,2.24S237,131,238,138.91s-1,7.71-.5,11.69.25,4.23.25,4.23S230,151.1,223.56,155.33Z" style="fill: rgb(38, 50, 56); stroke: rgb(38, 50, 56); stroke-miterlimit: 10; transform-origin: 197.378px 124.174px;" id="el58mg7nylepo" class="animable"></path><path d="M218.85,220.76s-2-4.39-9.65-5.92-21.93,10.31-30.71,21.28-14.26,32.68-14.91,33.56-4.39,4.17-7.24,17.33-2.2,35.53-2.85,37.51-3.29,14.26-2.42,20.18,3.07,12.5,9.87,14.69,13.38,1.54,18.87,2.64,18.42,5.48,26.32,2,20.84-18.42,24.79-30.93,2.85-29.61.44-37.95-2.42-21.49-5.27-39S224,235.7,223.9,232C223.68,221.42,218.85,220.76,218.85,220.76Z" style="fill: rgb(40, 200, 146); stroke: rgb(38, 50, 56); stroke-miterlimit: 10; transform-origin: 192.214px 290.028px;" id="elu9e1pcsl38q" class="animable"></path><path d="M223.05,313a16.53,16.53,0,0,0,5.46-2.95" style="fill: none; stroke: rgb(38, 50, 56); stroke-miterlimit: 10; transform-origin: 225.78px 311.525px;" id="elp6ij4nriq1m" class="animable"></path><path d="M163.8,273.19s.21,23.25,9.87,30.93c7.36,5.85,28.63,12,43.47,10.15" style="fill: none; stroke: rgb(38, 50, 56); stroke-miterlimit: 10; transform-origin: 190.47px 293.897px;" id="elx5wivi265v" class="animable"></path><path d="M165.47,351.22c2.14,3.16,4.47,5.82,6.88,7.3" style="fill: none; stroke: rgb(38, 50, 56); stroke-miterlimit: 10; transform-origin: 168.91px 354.87px;" id="ele9omwy3hwba" class="animable"></path><path d="M154.36,327.81s4.09,12.14,9.84,21.45" style="fill: none; stroke: rgb(38, 50, 56); stroke-miterlimit: 10; transform-origin: 159.28px 338.535px;" id="eljwvdh28s6p" class="animable"></path></g><g id="freepik--Zoom--inject-122" class="animable animator-hidden" style="transform-origin: 375.519px 242.126px;"><path d="M458.27,200.3a61.71,61.71,0,1,1-61.71-61.71l1.69,0a61.64,61.64,0,0,1,60,61.69Z" style="fill: rgb(40, 200, 146); stroke: rgb(38, 50, 56); stroke-miterlimit: 10; transform-origin: 396.56px 200.3px;" id="el65bqo60zcaq" class="animable"></path><path d="M418.83,224.68l-7.68,2.26c-3.1-4.55-6.31-15.28-8.86-25.54-.16-.64-.31-1.28-.47-1.92-.39-1.6-.76-3.17-1.11-4.69-.15-.64-.29-1.28-.43-1.91-.4-1.77-.77-3.46-1.1-5-.14-.66-.27-1.31-.4-1.91h0c-1-4.95-1.63-8.25-1.63-8.25-2,3.26-4.09,6.44-6.09,9.48-.35.55-.72,1.1-1.08,1.64q-1.32,2-2.6,3.89l-1.11,1.64c-.67,1-1.33,2-2,2.9l-1.12,1.61C375.59,209.76,370,217,370,217l-4.51-3.62s4.14-5.32,12.4-18.11c.35-.53.7-1.08,1.06-1.64.73-1.13,1.48-2.31,2.26-3.54l1.06-1.67c.7-1.12,1.43-2.29,2.19-3.49h0c.34-.55.67-1.11,1-1.68a65.66,65.66,0,0,0,3-5.92c.29-.65.58-1.31.85-2,1.15-2.74,2.17-5.58,3.06-8.42.21-.66.4-1.32.6-2,1.12-3.79,2-7.56,2.77-11.14.14-.64.27-1.29.39-1.92h0c1-5.1,1.65-9.72,2.07-13.3a61.52,61.52,0,0,1,8.65.84c-.69,3.66-1.46,8.35-2,13.3-.08.64-.14,1.29-.21,1.95-.33,3.42-.54,6.93-.53,10.27,0,.66,0,1.32,0,2,0,1,.09,2.08.18,3.08.14,1.56.39,3.36.74,5.34.12.64.24,1.3.38,2,.37,1.89.81,3.91,1.3,6,.15.63.31,1.26.46,1.91.43,1.77.9,3.57,1.38,5.4.16.63.33,1.26.5,1.9h0c.49,1.82,1,3.67,1.51,5.48q.25,1,.54,1.89C414.94,213,418.83,224.68,418.83,224.68Z" style="fill: rgb(255, 255, 255); stroke: rgb(38, 50, 56); stroke-miterlimit: 10; transform-origin: 392.16px 182.745px;" id="el9wydy3fp7w" class="animable"></path><path d="M404.89,152.75c-.08.64-.14,1.29-.21,1.95l-8.9-.87c.14-.64.27-1.29.39-1.92h0Z" style="fill: rgb(38, 50, 56); transform-origin: 400.335px 153.305px;" id="elhjutez2dzq5" class="animable"></path><path d="M404.19,166.93H392.41c.21-.66.4-1.32.6-2h11.14C404.15,165.63,404.17,166.29,404.19,166.93Z" style="fill: rgb(38, 50, 56); transform-origin: 398.3px 165.93px;" id="elrj90j7sv5j" class="animable"></path><path d="M405.49,177.32h-17c.29-.65.58-1.31.85-2h15.76C405.23,176,405.35,176.65,405.49,177.32Z" style="fill: rgb(38, 50, 56); transform-origin: 396.99px 176.32px;" id="elhbspdisns3e" class="animable"></path><polygon points="377.93 195.28 383.16 198.85 384.27 197.23 378.98 193.63 377.93 195.28" style="fill: rgb(38, 50, 56); transform-origin: 381.1px 196.24px;" id="elsjxvgljoh3l" class="animable"></polygon><path d="M382.3,188.42l5.07,4.28-1.12,1.63-5-4.24Z" style="fill: rgb(38, 50, 56); transform-origin: 384.31px 191.375px;" id="elgg0ipul5s0d" class="animable"></path><path d="M391.05,187.17c-.35.55-.72,1.1-1.08,1.64l-5.48-3.88h0c.34-.55.67-1.11,1-1.68Z" style="fill: rgb(38, 50, 56); transform-origin: 387.77px 186.03px;" id="elkugmeleo7t" class="animable"></path><polyline points="384.28 197.24 384.27 197.23 386.25 194.33 386.26 194.34" style="fill: none; transform-origin: 385.265px 195.785px;" id="elzi7u89ld0li" class="animable"></polyline><path d="M407.25,185.24l-8.07,2.61c-.14-.66-.27-1.31-.4-1.91l8-2.61C406.94,184,407.1,184.59,407.25,185.24Z" style="fill: rgb(38, 50, 56); transform-origin: 403.015px 185.59px;" id="elemwz0am9mb8" class="animable"></path><path d="M409.13,192.54l-8.42,2.25c-.15-.64-.29-1.28-.43-1.91l8.35-2.24C408.79,191.27,409,191.9,409.13,192.54Z" style="fill: rgb(38, 50, 56); transform-origin: 404.705px 192.715px;" id="el2u0z8i7trha" class="animable"></path><path d="M411.19,199.91l-8.9,1.49c-.16-.64-.31-1.28-.47-1.92l8.83-1.46Q410.91,199,411.19,199.91Z" style="fill: rgb(38, 50, 56); transform-origin: 406.505px 199.71px;" id="el2ersisx9jah" class="animable"></path><path d="M380.43,213.84a5.88,5.88,0,1,0-5.88,5.88A5.88,5.88,0,0,0,380.43,213.84Z" style="fill: rgb(255, 255, 255); stroke: rgb(38, 50, 56); stroke-miterlimit: 10; transform-origin: 374.55px 213.84px;" id="elcnyod9ukrom" class="animable"></path><path d="M371.4,207.06a5.88,5.88,0,1,0-5.88,5.87A5.88,5.88,0,0,0,371.4,207.06Z" style="fill: rgb(255, 255, 255); stroke: rgb(38, 50, 56); stroke-miterlimit: 10; transform-origin: 365.52px 207.05px;" id="elhav3amjadc8" class="animable"></path><path d="M380.41,201.72a5.88,5.88,0,1,0-5.88,5.88A5.87,5.87,0,0,0,380.41,201.72Z" style="fill: rgb(255, 255, 255); stroke: rgb(38, 50, 56); stroke-miterlimit: 10; transform-origin: 374.53px 201.72px;" id="el7w8gw784ppn" class="animable"></path><path d="M384.09,206.87a5.88,5.88,0,1,0-5.88,5.88A5.89,5.89,0,0,0,384.09,206.87Z" style="fill: rgb(255, 255, 255); stroke: rgb(38, 50, 56); stroke-miterlimit: 10; transform-origin: 378.21px 206.87px;" id="elvovlkw4j4y" class="animable"></path><path d="M366.47,202.8a5.88,5.88,0,1,0-5.88,5.88A5.88,5.88,0,0,0,366.47,202.8Z" style="fill: rgb(255, 255, 255); stroke: rgb(38, 50, 56); stroke-miterlimit: 10; transform-origin: 360.59px 202.8px;" id="elv32zecoyag" class="animable"></path><path d="M360.56,214.43a5.88,5.88,0,1,0-5.88,5.88A5.88,5.88,0,0,0,360.56,214.43Z" style="fill: rgb(255, 255, 255); stroke: rgb(38, 50, 56); stroke-miterlimit: 10; transform-origin: 354.68px 214.43px;" id="elvrlolxigfj" class="animable"></path><path d="M366.44,214.43a5.88,5.88,0,1,0-5.88,5.88A5.88,5.88,0,0,0,366.44,214.43Z" style="fill: rgb(255, 255, 255); stroke: rgb(38, 50, 56); stroke-miterlimit: 10; transform-origin: 360.56px 214.43px;" id="eloaaj39vys7" class="animable"></path><path d="M372.75,220.88a5.88,5.88,0,1,0-5.88,5.88A5.88,5.88,0,0,0,372.75,220.88Z" style="fill: rgb(255, 255, 255); stroke: rgb(38, 50, 56); stroke-miterlimit: 10; transform-origin: 366.87px 220.88px;" id="el496qzehu52i" class="animable"></path><path d="M385.07,224.55a5.88,5.88,0,1,0-5.88,5.88A5.87,5.87,0,0,0,385.07,224.55Z" style="fill: rgb(255, 255, 255); stroke: rgb(38, 50, 56); stroke-miterlimit: 10; transform-origin: 379.19px 224.55px;" id="el5f9ijexwsk7" class="animable"></path><path d="M390.53,214.27a5.88,5.88,0,1,0-5.88,5.87A5.88,5.88,0,0,0,390.53,214.27Z" style="fill: rgb(255, 255, 255); stroke: rgb(38, 50, 56); stroke-miterlimit: 10; transform-origin: 384.65px 214.26px;" id="el5jxoocogmo9" class="animable"></path><path d="M377.27,213.38a5.88,5.88,0,1,0-5.87,5.88A5.87,5.87,0,0,0,377.27,213.38Z" style="fill: rgb(255, 255, 255); stroke: rgb(38, 50, 56); stroke-miterlimit: 10; transform-origin: 371.39px 213.38px;" id="elq9whljz8nva" class="animable"></path><path d="M374.34,199a5.88,5.88,0,1,0-5.88,5.88A5.88,5.88,0,0,0,374.34,199Z" style="fill: rgb(255, 255, 255); stroke: rgb(38, 50, 56); stroke-miterlimit: 10; transform-origin: 368.46px 199px;" id="eljg57zftjnqa" class="animable"></path><path d="M377.41,228.16a5.88,5.88,0,1,0-5.88,5.88A5.88,5.88,0,0,0,377.41,228.16Z" style="fill: rgb(255, 255, 255); stroke: rgb(38, 50, 56); stroke-miterlimit: 10; transform-origin: 371.53px 228.16px;" id="elm0tig8xxb1e" class="animable"></path><circle cx="358.45" cy="224.79" r="5.88" style="fill: rgb(255, 255, 255); stroke: rgb(38, 50, 56); stroke-miterlimit: 10; transform-origin: 358.45px 224.79px;" id="el6jlbm6bim8k" class="animable"></circle><path d="M370,231.57a5.88,5.88,0,1,0-5.88,5.88A5.88,5.88,0,0,0,370,231.57Z" style="fill: rgb(255, 255, 255); stroke: rgb(38, 50, 56); stroke-miterlimit: 10; transform-origin: 364.12px 231.57px;" id="el94s6dph3woa" class="animable"></path><path d="M403,220.8a5.88,5.88,0,1,1,5.88,5.88A5.87,5.87,0,0,1,403,220.8Z" style="fill: rgb(255, 255, 255); stroke: rgb(38, 50, 56); stroke-miterlimit: 10; transform-origin: 408.88px 220.8px;" id="eljdhxqfbz8v" class="animable"></path><path d="M412,214a5.88,5.88,0,1,1,5.88,5.88A5.88,5.88,0,0,1,412,214Z" style="fill: rgb(255, 255, 255); stroke: rgb(38, 50, 56); stroke-miterlimit: 10; transform-origin: 417.88px 214px;" id="eljqqo5wvwwcq" class="animable"></path><path d="M403,208.69a5.88,5.88,0,1,1,5.88,5.88A5.88,5.88,0,0,1,403,208.69Z" style="fill: rgb(255, 255, 255); stroke: rgb(38, 50, 56); stroke-miterlimit: 10; transform-origin: 408.88px 208.69px;" id="el9jjdtc71ycp" class="animable"></path><path d="M399.36,213.84a5.88,5.88,0,1,1,5.87,5.88A5.87,5.87,0,0,1,399.36,213.84Z" style="fill: rgb(255, 255, 255); stroke: rgb(38, 50, 56); stroke-miterlimit: 10; transform-origin: 405.24px 213.84px;" id="elnwv8mu341u" class="animable"></path><path d="M417,209.77a5.88,5.88,0,1,1,5.88,5.88A5.88,5.88,0,0,1,417,209.77Z" style="fill: rgb(255, 255, 255); stroke: rgb(38, 50, 56); stroke-miterlimit: 10; transform-origin: 422.88px 209.77px;" id="elhau2j3ubvjj" class="animable"></path><path d="M422.88,221.4a5.88,5.88,0,1,1,5.88,5.87A5.88,5.88,0,0,1,422.88,221.4Z" style="fill: rgb(255, 255, 255); stroke: rgb(38, 50, 56); stroke-miterlimit: 10; transform-origin: 428.76px 221.39px;" id="el41geksbmubb" class="animable"></path><path d="M417,221.4a5.88,5.88,0,1,1,5.88,5.87A5.88,5.88,0,0,1,417,221.4Z" style="fill: rgb(255, 255, 255); stroke: rgb(38, 50, 56); stroke-miterlimit: 10; transform-origin: 422.88px 221.39px;" id="elpcxsu18oyr" class="animable"></path><path d="M410.69,227.84a5.88,5.88,0,1,1,5.88,5.88A5.87,5.87,0,0,1,410.69,227.84Z" style="fill: rgb(255, 255, 255); stroke: rgb(38, 50, 56); stroke-miterlimit: 10; transform-origin: 416.57px 227.84px;" id="el5j2ki0qthmw" class="animable"></path><path d="M398.37,231.52a5.88,5.88,0,1,1,5.88,5.88A5.88,5.88,0,0,1,398.37,231.52Z" style="fill: rgb(255, 255, 255); stroke: rgb(38, 50, 56); stroke-miterlimit: 10; transform-origin: 404.25px 231.52px;" id="elg9lbyatf23p" class="animable"></path><path d="M392.92,221.23a5.88,5.88,0,1,1,5.87,5.88A5.88,5.88,0,0,1,392.92,221.23Z" style="fill: rgb(255, 255, 255); stroke: rgb(38, 50, 56); stroke-miterlimit: 10; transform-origin: 398.8px 221.23px;" id="elib4d82i64i8" class="animable"></path><path d="M406.17,220.35a5.88,5.88,0,1,1,5.88,5.88A5.88,5.88,0,0,1,406.17,220.35Z" style="fill: rgb(255, 255, 255); stroke: rgb(38, 50, 56); stroke-miterlimit: 10; transform-origin: 412.05px 220.35px;" id="el6s5afefh20d" class="animable"></path><path d="M409.1,206a5.88,5.88,0,1,1,5.88,5.87A5.88,5.88,0,0,1,409.1,206Z" style="fill: rgb(255, 255, 255); stroke: rgb(38, 50, 56); stroke-miterlimit: 10; transform-origin: 414.98px 205.99px;" id="el7phl475w8fa" class="animable"></path><path d="M406,235.13a5.88,5.88,0,1,1,5.88,5.88A5.88,5.88,0,0,1,406,235.13Z" style="fill: rgb(255, 255, 255); stroke: rgb(38, 50, 56); stroke-miterlimit: 10; transform-origin: 411.88px 235.13px;" id="el6jxcowucrg7" class="animable"></path><path d="M419.11,231.76a5.88,5.88,0,1,1,5.88,5.88A5.88,5.88,0,0,1,419.11,231.76Z" style="fill: rgb(255, 255, 255); stroke: rgb(38, 50, 56); stroke-miterlimit: 10; transform-origin: 424.99px 231.76px;" id="elh8p462i1coc" class="animable"></path><circle cx="419.31" cy="238.54" r="5.88" style="fill: rgb(255, 255, 255); stroke: rgb(38, 50, 56); stroke-miterlimit: 10; transform-origin: 419.31px 238.54px;" id="elh22lubu9k35" class="animable"></circle><g id="elzfy0315bn79"><circle cx="301.53" cy="336.94" r="7.28" style="fill: none; stroke: rgb(38, 50, 56); stroke-miterlimit: 10; transform-origin: 301.53px 336.94px; transform: rotate(-13.32deg);" class="animable"></circle></g><line x1="307.76" y1="332.23" x2="361.16" y2="250.57" style="fill: none; stroke: rgb(38, 50, 56); stroke-miterlimit: 10; transform-origin: 334.46px 291.4px;" id="elhkmiirzf736" class="animable"></line></g><defs>     <filter id="active" height="200%">         <feMorphology in="SourceAlpha" result="DILATED" operator="dilate" radius="2"></feMorphology>                <feFlood flood-color="#32DFEC" flood-opacity="1" result="PINK"></feFlood>        <feComposite in="PINK" in2="DILATED" operator="in" result="OUTLINE"></feComposite>        <feMerge>            <feMergeNode in="OUTLINE"></feMergeNode>            <feMergeNode in="SourceGraphic"></feMergeNode>        </feMerge>    </filter>    <filter id="hover" height="200%">        <feMorphology in="SourceAlpha" result="DILATED" operator="dilate" radius="2"></feMorphology>                <feFlood flood-color="#ff0000" flood-opacity="0.5" result="PINK"></feFlood>        <feComposite in="PINK" in2="DILATED" operator="in" result="OUTLINE"></feComposite>        <feMerge>            <feMergeNode in="OUTLINE"></feMergeNode>            <feMergeNode in="SourceGraphic"></feMergeNode>        </feMerge>            <feColorMatrix type="matrix" values="0   0   0   0   0                0   1   0   0   0                0   0   0   0   0                0   0   0   1   0 "></feColorMatrix>    </filter></defs></svg>